<svg xmlns="http://www.w3.org/2000/svg" viewBox="0 0 36.14 16.03"><defs><style>.cls-1{fill:#fff;}</style></defs><title>Asset 2</title><g id="Layer_2" data-name="Layer 2"><g id="Layer_1-2" data-name="Layer 1"><path class="cls-1" d="M0,14.4a2.75,2.75,0,0,1,1.86.68A4.11,4.11,0,0,0,4.52,16a4.11,4.11,0,0,0,2.66-.94,2.86,2.86,0,0,1,3.71,0,4.22,4.22,0,0,0,5.31,0,2.86,2.86,0,0,1,3.71,0,4.22,4.22,0,0,0,5.32,0,2.87,2.87,0,0,1,3.72,0,4.23,4.23,0,0,0,5.32,0,2.75,2.75,0,0,1,1.86-.68V13a4.11,4.11,0,0,0-2.66.94,2.87,2.87,0,0,1-3.72,0,4.23,4.23,0,0,0-5.32,0,2.86,2.86,0,0,1-3.71,0,4.22,4.22,0,0,0-5.31,0,2.86,2.86,0,0,1-3.71,0,4.22,4.22,0,0,0-5.32,0,2.75,2.75,0,0,1-1.86.68A2.75,2.75,0,0,1,2.66,14,4.11,4.11,0,0,0,0,13Z"/><path class="cls-1" d="M1.44,0h1l2,4.8L6.5,0h1L8.71,7.5H7.27L6.61,3,4.6,7.6H4.2L2.25,3,1.52,7.5H.07Z"/><path class="cls-1" d="M13.18,1.41V3h2.53V4.28H13.18v2h2.63V7.5H11.75V.17h4.06V1.41Z"/><path class="cls-1" d="M19.06,0h1l4.47,5.1V.17H26V7.65H25l-4.47-5.1v5H19.06Z"/><path class="cls-1" d="M30.83,4.37a2.22,2.22,0,0,0,.23,1.31,1.56,1.56,0,0,0,2.57,0,2.22,2.22,0,0,0,.23-1.31V.17h1.43V4.65a3.07,3.07,0,0,1-.54,2,3.28,3.28,0,0,1-4.82,0,3.07,3.07,0,0,1-.54-2V.17h1.43Z"/></g></g></svg>