<svg xmlns="http://www.w3.org/2000/svg" viewBox="0 0 309.93 331.86">
	<defs>
		<style>
			.bhd-seal-01{isolation:isolate;}.bhd-seal-02{opacity:1;mix-blend-mode:multiply;}.bhd-seal-fills{fill:#EAEAEA;}
		</style>
	</defs>
	<path class="bhd-seal-fills" d="M46.5,254.76l8,9.34,10.76-9.19c.78-.67,1.34-.7,2,.07l3.21,3.76c.67.78.54,1.33-.24,2L43.08,283.92c-.78.67-1.34.7-2-.07l-3.21-3.76c-.67-.78-.54-1.33.24-2l11.54-9.86-8-9.34-11.54,9.86c-.78.66-1.34.7-2-.08l-3.21-3.76c-.67-.78-.54-1.33.24-2l27.14-23.19c.78-.67,1.34-.7,2,.08l3.21,3.76c.67.78.54,1.33-.24,2Z"/>
	<path class="bhd-seal-fills" d="M63.86,302.68c-.87-.53-.92-1.1-.39-2l18.69-30.38c.53-.87,1.06-1.08,1.93-.55L100.64,280c.83.5,1,1,.5,1.9l-1.88,3a1.22,1.22,0,0,1-2,.47L86.14,278.5l-4.82,7.84,10.35,6.37c.87.54,1.08,1.07.54,1.94l-1.79,2.9c-.5.82-1.1.92-2,.39L78.1,291.57l-5.53,9,11.66,7.17c.87.54,1,1,.49,1.91l-1.88,3a1.2,1.2,0,0,1-2,.46Z"/>
	<path class="bhd-seal-fills" d="M111.78,323.73c-.31,1-.77,1.3-1.75,1l-4.71-1.49c-1-.31-1.16-.85-.85-1.82l10.79-34c.31-1,.77-1.3,1.75-1l4.71,1.49c1,.31,1.16.85.85,1.82Z"/>
	<path class="bhd-seal-fills" d="M161.81,311.71c1,0,1.4.41,1.35,1.43l-.51,10.1c-.24,4.76-3.53,9.09-13.8,8.58s-13.11-5.15-12.87-9.92l1.05-21c.24-4.77,3.53-9.09,13.79-8.58s13.11,5.15,12.87,9.92l-.11,2.27c0,1-.41,1.4-1.38,1.35l-4.71-.24c-1-.05-1.39-.53-1.34-1.49l0-.91c.14-2.84-1.77-4.35-5.57-4.54s-5.8,1.13-5.94,4l-.92,18.27c-.14,2.84,1.71,4.35,5.52,4.54s5.86-1.13,6-3.91l.19-3.8-5.56-.28c-1-.05-1.46-.41-1.41-1.43l.18-3.63c.05-1,.53-1.34,1.55-1.29Z"/>
	<path class="bhd-seal-fills" d="M189.41,304.92l11.81-3.36L197.35,288c-.28-1-.07-1.52.91-1.79l4.75-1.35c1-.28,1.44.07,1.72,1.05l9.75,34.33c.28,1,.08,1.51-.91,1.79l-4.75,1.35c-1,.28-1.44-.07-1.72-1L203,307.69,191.15,311l4.14,14.59c.28,1,.08,1.52-.9,1.79l-4.76,1.35c-1,.28-1.44-.07-1.71-1.05l-9.75-34.33c-.28-1-.08-1.51.91-1.79l4.75-1.35c1-.28,1.44.07,1.72,1Z"/>
	<path class="bhd-seal-fills" d="M235.88,265.47c.8-.54,1.37-.51,1.94.35l2,3a1.22,1.22,0,0,1-.39,2l-6.71,4.48,17.09,25.61c.57.85.54,1.41-.31,2l-4.11,2.74c-.85.57-1.43.41-2-.44l-17.09-25.61L219.57,284a1.2,1.2,0,0,1-2-.39l-2-3c-.57-.85-.43-1.35.42-1.92Z"/>
	<path class="bhd-seal-fills" d="M264.69,248.91c-2.15-1.76-4.35-1.14-6.66,1.67s-2.51,5.14-.36,6.9l.66.54a3.15,3.15,0,0,0,3.85.14l9-5.42c3.5-2.12,7.32-2.67,10.58,0l3.38,2.77c3.69,3,5,8.46-1.4,16.33s-12.07,7.66-15.77,4.64l-2.77-2.27c-.79-.65-.89-1.24-.28-2l3-3.69c.65-.79,1.22-.77,2-.12l2,1.62c2.15,1.76,4.53.92,7-2.07s2.8-5.49.65-7.25l-1.41-1.15c-1.8-1.48-3.95-.3-6.31,1.07l-8.13,4.73a8.11,8.11,0,0,1-8.95-.64l-2.59-2.12c-3.69-3-5.29-8.15,1-15.85s11.79-7.31,15.48-4.29l1.8,1.48a1.21,1.21,0,0,1,.2,2l-3,3.69c-.61.75-1.18.72-1.93.11Z"/>
	<path class="bhd-seal-fills" d="M48.37,96.8c-.64.8-1.2.79-2,.15L18.45,74.71c-.8-.64-.94-1.19-.31-2l6.48-8.13c6.41-8,11.55-8.38,15.28-5.41l2.62,2.09a6.62,6.62,0,0,1,2.32,7.3c3.47-2.17,6.69-2.37,9.13-.43l3.51,2.8c3.73,3,4.86,8.31-1.55,16.35ZM26.88,71.61l7.73,6.16,2.66-3.34c2.26-2.84,2.65-5.52.39-7.32L36.1,65.88c-2.22-1.77-4.3-.44-6.67,2.53Zm12.27,9.77L47.5,88l3.65-4.57c2.37-3,2.8-5.69.57-7.47l-2-1.59c-1.91-1.52-4.56-.58-6.93,2.4Z"/>
	<path class="bhd-seal-fills" d="M76.41,54.08c1.54,2.39,4.22,2.36,7.42.3s4.44-4.54,2.91-6.93L72.17,24.73c-.55-.86-.51-1.43.35-2l4.16-2.67c.86-.55,1.35-.32,1.9.54L93.89,44.49c2.58,4,2,9.7-6.62,15.25s-14,3.68-16.62-.34L55.34,35.53a1.24,1.24,0,0,1,.4-2l4.16-2.67c.81-.52,1.39-.35,1.94.51Z"/>
	<path class="bhd-seal-fills" d="M125.31,2.84c.93-.24,1.46,0,1.72,1l.9,3.46a1.22,1.22,0,0,1-1,1.73l-14,3.67,2.33,8.9,13.08-3.43c1-.26,1.46,0,1.72,1l.92,3.52c.26,1,0,1.48-1,1.74l-13.08,3.42,3.84,14.67c.26,1,0,1.52-.94,1.77L115,45.47c-1,.26-1.43-.09-1.69-1.08l-9-34.51c-.26-1,0-1.52.94-1.77Z"/>
	<path class="bhd-seal-fills" d="M174.54.75c1,0,1.41.39,1.37,1.41l-.13,3.58c0,1-.5,1.4-1.47,1.37l-14.48-.52-.33,9.2,13.51.49c1,0,1.41.39,1.37,1.41l-.13,3.64c0,1-.45,1.4-1.47,1.37l-13.51-.49-.54,15.16c0,1-.39,1.46-1.41,1.43l-4.94-.18c-1,0-1.34-.5-1.3-1.53l1.28-35.66c0-1,.39-1.46,1.41-1.43Z"/>
  <path class="bhd-seal-fills" d="M211.38,9.22a1.69,1.69,0,0,1,1.29,1.91l-1,37.3c0,1-.49,1.33-1.41,1l-4.86-1.59c-.92-.29-1.14-.9-1.13-1.86l.26-7.2-10-3.27-4,6a1.62,1.62,0,0,1-2.06.83L184,40.93c-1-.32-1.14-.91-.59-1.68L204.57,8.49a1.63,1.63,0,0,1,2.11-.8Zm-6.45,16.72a85.79,85.79,0,0,1,1.63-10.34c-.34.67-3.47,7.17-4.85,9.23l-3.8,5.45,6.86,2.23Z"/>
  <path class="bhd-seal-fills" d="M233,55.7l10.4,7.23c.79.55,1,1.09.39,1.93l-2,2.94a1.22,1.22,0,0,1-2,.36L224.06,57.23c-.7-.49-.69-1.1-.13-1.89L244.3,26.05c.58-.84,1.12-1,2-.43l4.06,2.82c.84.58.86,1.15.28,2Z"/>
  <path class="bhd-seal-fills" d="M273.89,59.17c3.75-3,9.46-3,15.82,5.13s5,13.63,1.25,16.58l-16.52,13c-3.75,3-9.46,3-15.81-5.13s-5-13.63-1.25-16.58Zm11.25,16.52c2.23-1.75,1.91-4.46-.44-7.46s-4.87-3.9-7.1-2.15L263.22,77.39c-2.23,1.75-1.95,4.42.41,7.41s4.91,3.95,7.14,2.19Z"/><path class="bhd-seal-fills" d="M2.06,159c-.39,0-.52-.17-.52-.56V144.83c0-.39.13-.56.52-.56h7.4c.37,0,.54.13.54.52v1.36c0,.39-.17.54-.54.54h-5v3.5H9.09c.39,0,.56.13.56.52V152c0,.37-.17.52-.56.52H4.46v4H9.67c.39,0,.54.13.54.52v1.36c0,.39-.15.54-.54.54Z"/>
  <path class="bhd-seal-fills" d="M22.77,148c0-1.06-.71-1.56-2.1-1.56s-2.12.5-2.12,1.56v.33a1.2,1.2,0,0,0,.89,1.17l3.76,1.34A3.31,3.31,0,0,1,25.75,154v1.67c0,1.82-1.27,3.53-5.15,3.53s-5.17-1.71-5.17-3.53v-1.36c0-.39.15-.56.52-.56h1.82c.39,0,.52.17.52.56v1c0,1.06.82,1.56,2.29,1.56s2.29-.5,2.29-1.56v-.69c0-.89-.86-1.23-1.84-1.6l-3.35-1.25a3.09,3.09,0,0,1-2-2.79v-1.28c0-1.82,1.12-3.53,4.91-3.53s5,1.71,5,3.53v.89c0,.37-.15.54-.54.54H23.26c-.37,0-.5-.17-.5-.54Z"/>
  <path class="bhd-seal-fills" d="M9.63,170.24c.37,0,.54.13.54.52v1.36c0,.39-.17.54-.54.54H6.55v11.72c0,.39-.13.56-.52.56H4.15c-.39,0-.54-.17-.54-.56V172.66H.54c-.39,0-.54-.15-.54-.54v-1.36c0-.39.15-.52.54-.52Z"/>
  <path class="bhd-seal-fills" d="M15.65,184.95c-.35,0-.46-.2-.46-.56V170.8c0-.39.13-.56.52-.56h4.72c3.92,0,5.28,1.71,5.28,3.53v7.65c0,1.82-1.36,3.53-5.28,3.53Zm2.47-12.28v9.86h2.31c1.47,0,2.36-.54,2.36-1.62v-6.62c0-1.08-.89-1.62-2.36-1.62Z"/>
	<path class="bhd-seal-fills" d="M294,156.55c.37,0,.54.13.54.52v1.36c0,.39-.17.54-.54.54h-8.65c-.39,0-.56-.15-.56-.54v-4a2,2,0,0,1,1.47-1.93l4.43-1.86a1.23,1.23,0,0,0,.86-1.26V148.1c0-1.08-.69-1.62-2.12-1.62s-2.1.54-2.1,1.62v.84c0,.39-.13.54-.5.54H285c-.39,0-.54-.15-.54-.54v-1.32c0-1.82,1.17-3.53,4.93-3.53s5,1.71,5,3.53v1.71a3.22,3.22,0,0,1-2.05,3.29l-3.66,1.52c-.63.26-1,.47-1,1.21v1.21Z"/>
	<path class="bhd-seal-fills" d="M299.85,147.62c0-1.82,1.25-3.53,5-3.53s5,1.71,5,3.53v8c0,1.82-1.27,3.53-5,3.53s-5-1.71-5-3.53Zm7.16.52c0-1.08-.72-1.62-2.12-1.62s-2.12.54-2.12,1.62v7c0,1.08.69,1.62,2.12,1.62s2.12-.54,2.12-1.62Z"/>
	<path class="bhd-seal-fills" d="M290.69,170.09c.24,0,.52,0,.52.52v11.92H294c.39,0,.54.13.54.52v1.36c0,.39-.15.54-.54.54h-8.69c-.37,0-.54-.15-.54-.54V183c0-.39.17-.52.54-.52h2.94V173l-2.92.52c-.35.06-.56-.09-.56-.46v-1.43c0-.37.22-.52.56-.58Z"/>
	<path class="bhd-seal-fills" d="M300,173.57c0-1.75,1.1-3.51,4.87-3.51s4.8,1.75,4.8,3.51v.56c0,.39-.15.54-.54.54h-1.79c-.39,0-.5-.15-.5-.54V174c0-1-.56-1.58-2-1.58s-2,.56-2,1.58v2.64a4.2,4.2,0,0,1,2.42-.67c3.31,0,4.52,1.73,4.52,3.55v2.1c0,1.82-1.15,3.53-4.93,3.53S300,183.41,300,181.6Zm6.92,6.34c0-1.08-.61-1.6-2-1.6s-2,.52-2,1.47v1.38c0,1.08.61,1.62,2,1.62s2-.54,2-1.62Z"/>
	<path class="bhd-seal-fills" d="M157,254.34a88.64,88.64,0,1,1,88.64-88.64A88.74,88.74,0,0,1,157,254.34Zm0-169.92a81.29,81.29,0,1,0,81.29,81.29A81.38,81.38,0,0,0,157,84.42Z"/>
	<path class="bhd-seal-fills" d="M113.92,234.74h-7.35V93.12h43.08a33.23,33.23,0,0,1,15.18,62.79,33.23,33.23,0,0,1-15.18,62.79H126.28V112.94h7.35v98.42h16a25.89,25.89,0,1,0,0-51.77v-7.35a25.89,25.89,0,1,0,0-51.77H113.92Z"/>
	<rect class="bhd-seal-fills" x="198.12" y="92.23" width="7.35" height="146.01"/>
	<rect class="bhd-seal-fills" x="153.62" y="152.09" width="48.18" height="7.35"/>
</svg>