<svg xmlns="http://www.w3.org/2000/svg" viewBox="0 0 34.93 34.92"><defs><style>.cls-1{fill:#fff;}</style></defs><title>bhd-logo-seal</title><g id="Layer_2" data-name="Layer 2"><g id="Layer_1-2" data-name="Layer 1"><path id="BHD-logo" class="cls-1" d="M17.46,0a17.36,17.36,0,0,0-10,3.14h0A17.45,17.45,0,1,0,17.46,0Zm0,1.7a15.66,15.66,0,0,1,7.91,2.14V14.67H20.47A6.62,6.62,0,0,0,16,3.14H10.89A15.67,15.67,0,0,1,17.46,1.7ZM1.7,17.46A15.74,15.74,0,0,1,7.47,5.28V29.65A15.74,15.74,0,0,1,1.7,17.46Zm7.47,13.4v-26H16a4.93,4.93,0,0,1,0,9.86v1.7a4.93,4.93,0,0,1,0,9.86H13V7.14h-1.7V28H16A6.61,6.61,0,0,0,20.4,16.37h5V31.09a15.72,15.72,0,0,1-16.2-.23Zm17.9-.91V5a15.74,15.74,0,0,1,0,25Z"/></g></g></svg>