<svg xmlns="http://www.w3.org/2000/svg" viewBox="0 0 58.57 58.59">
	<defs>
		<style>
			.heart-houston-svg{fill:#EC5A4F;}
		</style>
	</defs>
	<path class="heart-houston-svg" d="M18,9.49c.09.15.08.25-.07.34l-.74.45c-.15.09-.25.06-.34-.1L13.64,4.86c-.09-.15-.08-.25.07-.34l.74-.45c.15-.09.24-.06.34.1Z"/>
	<path class="heart-houston-svg" d="M24.87,6.83c0,.16,0,.26-.15.31L24,7.37a.21.21,0,0,1-.25,0l-2.8-2.57a4.78,4.78,0,0,1-.62-.65l1.17,3.79c0,.16,0,.25-.15.31l-.75.23c-.17.05-.25,0-.3-.17l-1.85-6c0-.16,0-.25.15-.31l.75-.23a.21.21,0,0,1,.23,0l2.92,2.68A6.85,6.85,0,0,1,23,5l-1.17-3.8c0-.16,0-.25.15-.31l.75-.23c.17-.05.25,0,.3.17Z"/>
	<path class="heart-houston-svg" d="M35.22.55c.17,0,.24.09.21.27l-.08.62c0,.18-.11.24-.28.21l-1.4-.19L33,6.81c0,.18-.09.25-.27.22l-.86-.11c-.18,0-.24-.11-.21-.29l.71-5.34-1.4-.19c-.18,0-.24-.1-.21-.28l.08-.62c0-.18.1-.23.28-.2Z"/>
	<path class="heart-houston-svg" d="M39.23,4.66l2,.88,1-2.25c.07-.16.16-.21.32-.14l.79.36c.16.07.18.17.11.33L40.87,9.52c-.07.16-.16.21-.32.14l-.79-.36c-.16-.07-.18-.17-.11-.33l1.09-2.42-2-.88L37.69,8.09c-.07.16-.16.21-.32.14l-.79-.36c-.16-.07-.18-.17-.11-.33L39,1.85c.07-.16.16-.21.32-.14l.79.36c.16.07.18.17.11.33Z"/>
	<path class="heart-houston-svg" d="M42.92,11.29c-.13-.12-.13-.22,0-.35L47,6.26c.12-.13.22-.15.35,0l2.55,2.24c.13.11.15.21,0,.34l-.41.47a.21.21,0,0,1-.35,0L47.47,7.78,46.41,9,48,10.4c.13.12.15.22,0,.35l-.39.45c-.11.13-.22.13-.35,0L45.7,9.8l-1.22,1.39,1.8,1.58c.13.12.15.21,0,.34l-.41.47a.21.21,0,0,1-.35,0Z"/>
	<path class="heart-houston-svg" d="M53.15,17.62l.86,2,2.26-1c.16-.07.26,0,.33.11l.35.79c.07.16,0,.25-.14.32l-5.71,2.51c-.16.07-.26,0-.33-.11l-.35-.79c-.07-.16,0-.25.14-.32L53,20l-.86-2-2.43,1.07c-.16.07-.26,0-.33-.11L49,18.23c-.07-.16,0-.25.14-.32l5.71-2.51c.16-.07.26,0,.33.11l.35.79c.07.16,0,.25-.14.32Z"/>
	<path class="heart-houston-svg" d="M51.45,25c0-.18.05-.25.23-.27l6.2-.73c.18,0,.26,0,.28.21l.4,3.37c0,.17,0,.25-.21.27l-.62.07c-.18,0-.26,0-.28-.22l-.27-2.28-1.6.19.25,2.11c0,.18,0,.26-.21.28L55,28.1c-.17,0-.25-.05-.27-.23l-.25-2.11L52.69,26,53,28.36c0,.18,0,.25-.21.27l-.62.07c-.18,0-.25,0-.28-.22Z"/>
	<path class="heart-houston-svg" d="M58.1,34.42a.29.29,0,0,1-.3.27l-6.47.82c-.16,0-.24,0-.22-.22l.14-.88c0-.17.13-.22.29-.24L52.8,34l.3-1.82L52,31.66c-.15-.07-.23-.16-.2-.33l.13-.79c0-.18.13-.22.28-.15L58,33.22a.29.29,0,0,1,.2.34ZM55,33.75a14.91,14.91,0,0,1,1.83,0c-.12,0-1.33-.41-1.72-.59l-1-.51-.2,1.25Z"/>
	<path class="heart-houston-svg" d="M52.18,39.58l-2.07-1c-.16-.08-.2-.17-.13-.33l.38-.77c.08-.16.18-.18.34-.1l5.59,2.77c.16.08.2.17.13.33l-.93,1.87c-.8,1.61-1.77,1.81-2.52,1.43l-.85-.42a1.47,1.47,0,0,1-.8-1.61l-2.72-.15c-.17,0-.21-.16-.13-.32l.39-.78c.06-.12.17-.12.34-.11l2.51.16,0-.05Zm2.75,1.36-1.75-.87-.44.88c-.3.6-.25,1.07.19,1.29l.42.21c.44.22.85,0,1.14-.63Z"/>
	<path class="heart-houston-svg" d="M49.39,50.64c-.11.12-.21.14-.34,0l-.46-.42a.21.21,0,0,1,0-.35l1-1-4-3.65c-.13-.12-.15-.22,0-.35l.59-.63a.22.22,0,0,1,.36,0l4,3.65,1-1a.21.21,0,0,1,.35,0l.46.42c.13.12.13.21,0,.34Z"/>
	<path class="heart-houston-svg" d="M42.26,53.91c.32.77.06,1.73-1.6,2.43s-2.53.21-2.85-.56l-1.42-3.39c-.32-.77-.06-1.73,1.6-2.43s2.53-.21,2.85.56ZM38.95,55c.19.46.66.53,1.28.27s.88-.64.69-1.1l-1.24-2.95c-.19-.46-.65-.53-1.27-.28s-.89.64-.7,1.1Z"/>
	<path class="heart-houston-svg" d="M30.37,58.58c-.17,0-.25,0-.27-.21L30,57.75c0-.18.05-.26.22-.27l2.52-.26-.17-1.6-2.35.25c-.18,0-.25,0-.27-.21L29.91,55c0-.18,0-.25.22-.27l2.35-.25-.27-2.64c0-.18,0-.26.21-.28l.86-.09c.18,0,.25.05.26.23l.65,6.2c0,.18,0,.26-.21.28Z"/>
	<path class="heart-houston-svg" d="M21.63,54.7l-2-.7-.81,2.34c-.06.17-.14.22-.31.17l-.82-.28c-.17-.06-.2-.15-.14-.32l2-5.9c.06-.17.14-.22.31-.17l.82.28c.17.06.2.15.14.32L20,52.95l2,.7.87-2.51c.06-.17.14-.22.31-.17l.82.28c.17.06.2.15.14.32l-2,5.9c-.06.17-.14.22-.31.17L21,57.36c-.17-.06-.2-.15-.14-.32Z"/>
	<path class="heart-houston-svg" d="M14.49,52.84c-.5.66-1.47.92-2.9-.17s-1.45-2.08-.94-2.75L12.87,47c.5-.66,1.47-.92,2.9.17s1.45,2.08.94,2.75Zm-2.63-2.3c-.3.4-.13.84.4,1.24s1,.44,1.3,0l1.93-2.55c.3-.4.13-.83-.4-1.24s-1-.45-1.31-.05Z"/>
	<path class="heart-houston-svg" d="M10,44.07c.41-.29.38-.75,0-1.3s-.82-.74-1.23-.46L4.92,45c-.15.1-.25.1-.35,0l-.5-.71c-.1-.15-.07-.23.08-.34l4.06-2.84c.68-.48,1.68-.42,2.71,1s.74,2.43.06,2.91L6.92,47.88a.22.22,0,0,1-.35-.06l-.5-.71c-.1-.14-.07-.24.07-.34Z"/>
	<path class="heart-houston-svg" d="M2.72,36.56c-.46.15-.58.53-.39,1.13s.51.86,1,.71l.14,0a.55.55,0,0,0,.39-.55L3.9,36a1.52,1.52,0,0,1,1-1.55l.73-.23c.8-.25,1.72.07,2.25,1.77s0,2.5-.83,2.75l-.6.19c-.17.05-.27,0-.32-.15L5.9,38c-.05-.17,0-.25.18-.3l.43-.13c.46-.15.57-.57.37-1.22s-.53-.94-1-.79l-.3.1c-.39.12-.42.55-.45,1L5,38.28a1.42,1.42,0,0,1-1,1.25l-.56.18c-.8.25-1.7,0-2.22-1.67s.06-2.42.86-2.67l.39-.12a.21.21,0,0,1,.31.16l.25.8c.05.16,0,.24-.17.29Z"/>
	<path class="heart-houston-svg" d="M0,28c0-.17.05-.25.23-.25l.63,0c.18,0,.25.07.25.24l0,1.41,5.38-.14c.18,0,.26.05.26.23l0,.86c0,.18-.07.25-.25.25l-5.38.14,0,1.41c0,.18-.06.25-.24.25l-.63,0c-.18,0-.24-.06-.24-.24Z"/>
	<path class="heart-houston-svg" d="M1.89,24.53c-.81-.21-1.41-1-.95-2.75s1.37-2.13,2.18-1.92l3.55.94c.81.21,1.41,1,.95,2.75s-1.37,2.13-2.18,1.92ZM3,21.22c-.48-.13-.82.2-1,.85s0,1.09.45,1.22l3.09.82c.48.13.82-.19,1-.84s0-1.1-.45-1.23Z"/>
	<path class="heart-houston-svg" d="M11.49,14.91c.14.09.18.18.08.34l-.43.66c-.07.11-.12.13-.22.13l-3.8-.17a4.79,4.79,0,0,1-.89-.1L9.56,17.9c.14.09.18.18.08.34l-.43.66c-.1.15-.2.16-.34.07l-5.26-3.4c-.14-.09-.18-.18-.08-.33L4,14.57a.21.21,0,0,1,.2-.12l4,.18a6.84,6.84,0,0,1,.77.09L5.55,12.57c-.14-.09-.18-.18-.08-.33l.43-.66c.1-.15.2-.16.34-.07Z"/>
</svg>