<svg xmlns="http://www.w3.org/2000/svg" viewBox="0 0 51.48 51.48">
	<defs>
	  <style>.circle{fill:none;stroke:#fff;stroke-miterlimit:10;stroke-width:3.25px;}.icon{fill:#fff;fill-rule:evenodd;}</style>
  </defs>
<title>insta</title>
	<circle class="circle" cx="25.74" cy="25.74" r="24.12"/>
	<path class="icon" d="M17.2,11.2s.05-.23.24-.25c4.14-.3,9.79-.15,14.32,0,.8,0,1.73-.11,2.43,0,0,0,.06.24.25.25a3.4,3.4,0,0,1,1,.24,4.63,4.63,0,0,1,1,.24c.17.08.35.41.49.49s.42-.08.49,0c.36.44,1.18,1.25,1.7,1.94.1.14.41.36.49.49s-.08.43,0,.49a1.73,1.73,0,0,1,.49.72c0,.09-.08.43,0,.49.31.25.13.49.24,1,.05.2.21.24.24.48.42,3.43,0,5.95,0,10.2a34.84,34.84,0,0,1-.24,6.56,4.43,4.43,0,0,1-.49,1.69,6.06,6.06,0,0,1-.24.74c-.25.2-.28.5-.49.73s-.41.13-.49.24.08.41,0,.48a8.42,8.42,0,0,1-1.21.73c-.13.07,0,.23-.25.25,0,0-.2,0-.24,0-.34.22-.55.65-.73.72s-.84.15-1.22.24c-2,.5-6.48.24-9.23.24s-6.89.41-9.47-.24a7.68,7.68,0,0,1-1.7-.73c-.17-.11-.34-.38-.49-.49a13.14,13.14,0,0,1-1.21-.73c-.16-.16-.09-.56-.24-.72s-.43-.15-.49-.25-.32-.84-.49-1.22c0,0-.2-.93-.24-1-.31-.25-.43-1.67-.48-2.67-.21-3.37,0-8.12,0-11.65a19.72,19.72,0,0,1,.24-4.13c.12-.59.46-1,.48-1.46a3.65,3.65,0,0,1,.73-1.21,7.1,7.1,0,0,1,1.21-1.21c.19-.17.29-.6.48-.73s.65-.08,1-.24c.13-.06,0-.23.24-.25s.83-.34,1.46-.48C16.87,11.16,17,11.23,17.2,11.2Zm19.9,5.1c-.08-.07.06-.4,0-.49s-.37-.35-.48-.49-.93-.94-1-1-.65-.07-1.21-.24c0,0,0-.22,0-.24s-.64,0-.73,0-.22-.24-.24-.24c-1.47-.23-4.5,0-7.53,0s-6.88-.18-8.5.24a4.3,4.3,0,0,0-3.15,2.43,2.46,2.46,0,0,0-.25.49c0,.21-.23.19-.24.24-.28,1.16.2,2.58,0,3.89,3-.46,6.92.74,8.49-.25.15-.09.32-.4.49-.49a9.1,9.1,0,0,1,4.62-.48c.88.15,1.57,1,2.91,1.22,2.1.36,4.44-.26,7.29,0C37.58,19.61,37.78,16.84,37.11,16.29ZM13.8,23.58c.38,4.19-.91,10.52,1,12.62a4.4,4.4,0,0,0,1.69,1.22c.25,0,.15.21.25.25a19,19,0,0,0,4.36.24H25.7c2.29,0,8.19.49,9-.49.07-.07.4,0,.49,0s0-.22,0-.24.4.06.48,0a25.53,25.53,0,0,0,1.7-1.94,8.19,8.19,0,0,0,.24-2.67c.1-3.21-.08-5.68,0-9H32.25c.76,1.5.49,4.13.24,5.1a1.94,1.94,0,0,1-.24.73A15.19,15.19,0,0,1,31,31.35a7.17,7.17,0,0,1-7,1.94c-.31-.08-.52-.19-.73-.24s-.32,0-.49-.25-.4.07-.49,0-.3-.34-.48-.48a7.35,7.35,0,0,1-2.42-2.91c-.75-1.76-.63-3.48,0-5.83Zm9.95,1A3.1,3.1,0,0,0,23,26a2.86,2.86,0,1,0,5.59,0,4.51,4.51,0,0,0-.73-1.45c-.34-.33-.84-.57-1-.73s-1.43-.25-1.22-.24v.24A2.75,2.75,0,0,0,23.75,24.55Z"/>
	<path class="icon" d="M34.8,15.75a5.55,5.55,0,0,1,0,3.13H31.67V15.75A5.35,5.35,0,0,1,34.8,15.75Z"/>
</svg>