<svg xmlns="http://www.w3.org/2000/svg" viewBox="0 0 259.15 210.56">
	<defs>
		<style>
			.shape-01-01{isolation:isolate;}.shape-01-02,.shape-01-03{mix-blend-mode:multiply;}.shape-01-03{fill:#EC5A4F;}
		</style>
	</defs>
	<path id="shape-01-r9" class="shape-01-03" d="M157.75,147c-8.77,3.72-18.66,11.09-29.57,22-2.12-15.82-1-33.5-.44-40.78a76.11,76.11,0,0,0,18.64,10A79.65,79.65,0,0,0,168,143Q162.67,144.93,157.75,147Z"/>
	<path id="shape-01-r8" class="shape-01-03" d="M122.07,95.82l-10,6.47-32.24-62,12.83-4.72c6.05,8.36,22.28,31.65,26.6,46.63l0,.15A74.89,74.89,0,0,1,122.07,95.82Z"/>
	<path id="shape-01-r7" class="shape-01-03" d="M122.7,102c.32,4.31-.11,7.86-.31,13.39-3-3-5.1-4.82-7.52-8.34Z"/>
	<path id="shape-01-r6" class="shape-01-03" d="M128,98.74l51.6-28.25,31.27,60.12q-12,2.67-22.8,5.79A75.72,75.72,0,0,1,148.31,133a70.27,70.27,0,0,1-20-11.39C128.89,112.66,129.26,106,128,98.74Z"/>
	<path id="shape-01-r5" class="shape-01-03" d="M259.15,122.3h0c-9,1.28-24.58,3.25-42.61,7l-8.86-17L244.06,93.4l15.09,29Z"/>
	<polygon id="shape-01-r4" class="shape-01-03" points="241.5 88.48 205.09 107.42 184.5 67.83 220.51 48.12 241.5 88.48"/>
	<path id="shape-01-r3" class="shape-01-03" d="M217.94,43.18,127.3,92.8a73.44,73.44,0,0,0-2.71-12.21c-2.38-8.19-8.12-19.35-17.07-33.17-3.62-5.59-7.05-10.5-9.44-13.84L194.54,0Z"/>
	<polygon id="shape-01-r2" class="shape-01-03" points="0 69.64 74.56 42.23 107.37 105.32 41.88 147.64 0 69.64"/>
	<path id="shape-01-r1" class="shape-01-03" d="M84.06,209.95l-8.42.62-1.75-3.29L44.51,152.56l65.69-42.45a75.3,75.3,0,0,0,12.33,14v.18c-.18,1.64-3,28,.8,49.8q-8.95,9.56-18.73,22.11c-2.94,3.77-6.26,9.48-8.83,12.93Z"/>
</svg>