<svg xmlns="http://www.w3.org/2000/svg" viewBox="0 0 51.48 51.48">
	<defs>
	  <style>.circle{fill:none;stroke:#fff;stroke-miterlimit:10;stroke-width:3.25px;}.icon{fill:#fff;fill-rule:evenodd;}</style>
  </defs>
<title>twita</title>
	<circle class="circle" cx="25.74" cy="25.74" r="24.12"/>
	<path class="icon" d="M19.3,40.27c0-.14-.16-.11-.26-.14a17.88,17.88,0,0,1-5.1-.94,9.91,9.91,0,0,1-3.61-2,13.06,13.06,0,0,0,9.77-2.82c-3.36-.21-5.65-2.21-6.29-4.68a3.87,3.87,0,0,0,2.81-.27c-3.18-.79-5-2.93-5.36-6.56a15.51,15.51,0,0,0,2.81.8c.16-.61-.73-.82-1.07-1.2-1.38-1.56-2.52-5.5-.66-7.91a19.1,19.1,0,0,0,14.06,7.1c-.71-5,2-7.67,5.89-8.44h1.48c.42.18,1.62.34,2.28.67.82.4,1.49,1.39,2.28,1.47,1.41.14,2.42-1.19,3.88-1.34a7.84,7.84,0,0,1-1.87,2.81c-.21.19-1.14.38-.67.67a24.39,24.39,0,0,0,3.49-.93c-.5.53-.79,1.16-1.34,1.74s-1.79,1.14-2,1.88a10.87,10.87,0,0,0,0,2.28A19.39,19.39,0,0,1,21.72,40.27Z"/>
</svg>