<svg xmlns="http://www.w3.org/2000/svg" viewBox="0 0 41.18 41.18">
	<defs>
		<style>
			.circle{fill:none;stroke:#fff;stroke-miterlimit:10;stroke-width:2.6px;}.cls-2{fill:#fff;}
		</style>
	</defs>
	<circle id="vimeo-circle" class="circle" cx="20.59" cy="20.59" r="19.29"/>
	<path id="vimeo-v" class="icon" d="M22,16.78a5.74,5.74,0,0,1,5.36-4.07c1.74.09,2.72,1.14,2.26,2.78-1.35,4.74-3.58,9-7.66,12-2.35,1.72-4,1.19-4.92-1.56-.74-2.17-1.26-4.42-1.92-6.62-.51-1.72-.6-1.71-2.34-1.51a3.87,3.87,0,0,1-1.42-.43l0-.42c1.38-1.08,2.69-2.26,4.15-3.21,1.67-1.09,3-.59,3.47,1.33.41,1.5.51,3.08.82,4.6a8.9,8.9,0,0,0,.83,2.52c.49.89,1.29.9,1.88.07a11.61,11.61,0,0,0,1.35-2.45C24.74,17.8,24.22,17,22,16.78Z"/>
</svg>